<svg height="280" viewBox="0 0 264 280" width="264" xmlns="http://www.w3.org/2000/svg" xmlns:xlink="http://www.w3.org/1999/xlink"><defs><path id="a" d="m124 144.610951v18.389049h4c39.764502 0 72 32.235498 72 72v9h-200v-9c0-39.764502 32.235498-72 72-72h4v-18.389049c-17.2373655-8.188579-29.6277754-24.92394-31.6948612-44.7297125-5.8248283-.8234519-10.3051388-5.8291289-10.3051388-11.8812385v-14c0-5.9459926 4.3245733-10.8819269 10-11.8340831v-6.1659169c0-30.927946 25.072054-56 56-56 30.927946 0 56 25.072054 56 56v6.1659169c5.675427.9521562 10 5.8880905 10 11.8340831v14c0 6.0521096-4.48031 11.0577866-10.305139 11.8812385-2.067086 19.8057725-14.457496 36.5411335-31.694861 44.7297125z"/><mask id="b" fill="#fff"><use fill="#fff" fill-rule="evenodd" xlink:href="#a"/></mask><mask id="c" fill="#fff"><use fill="#fff" fill-rule="evenodd" xlink:href="#g"/></mask><mask id="d" fill="#fff"><use fill="#fff" fill-rule="evenodd" xlink:href="#h"/></mask><mask id="e" fill="#fff"><path d="m0 0h264v280h-264z" fill="#fff" fill-rule="evenodd"/></mask><mask id="f" fill="#fff"><use fill="#fff" fill-rule="evenodd" xlink:href="#i"/></mask><path id="g" d="m94 29.6883435v44.3116565h76v-44.3116565c9.362956 1.3009691 18.149952 4.4024481 26.00002 8.9434708l-.00002 71.3681857h-9-110-9v-71.3681973c7.8500482-4.5410111 16.6370437-7.6424901 26-8.9434592z"/><path id="h" d="m35.117844 15.1280772c1.0578681 9.4917253 9.1081433 16.8719228 18.882156 16.8719228 9.8042055 0 17.8740075-7.425864 18.8917593-16.9599454.0819092-.7673086-.7750164-2.0400546-1.8489923-2.0400546-14.8940134 0-26.3048457 0-33.9559426 0-1.0802076 0-2.0748186 1.1784435-1.9689804 2.1280772z"/><path id="i" d="m21 157.540812v-88.49456c0-3.5322035.3981158-6.9714221 1.1519234-10.2752318 3.0531176-20.0396009 14.6233449-35.9601339 27.8480766-45.7710202 19.9046441-14.75961713 53.441939-19.01828252 65.047069-1.4778954 8.651274-3.84106922 21.47198-.3399932 30.952931 8.4778954 9.565156 9.4150438 17.19967 30.1973768 12.657409 47.2035172.104695 1.265679.158067 2.5455183.158067 3.8373791v21.8512232c-.881334-4.9738189-4.826481-8.8892079-9.815476-9.7262026v-.1659169c-6.036149-21.5357913-23.770484-31.4199528-34.570316-41.222887-16.8943274 18.8961453-69.6070432 18.9626939-87.429684 56.222887v10c0 6.018625 4.4308707 11.002364 10.2085808 11.867187 1.7432258 20.247605 14.260637 37.415797 31.7914192 45.743764v.389049c2.9303712 43.855112-6.641538 98.797432-69 82 13.6057325-7.962248 20.8081123-58.944437 21-90.459188zm96 8.070139c17.530782-8.327967 30.048193-25.496159 31.791419-45.743764 5.087341-.761486 9.130476-4.716371 10.024057-9.759306v1.362509c0 15.828162 3.757235 31.430255 10.962724 45.523219l26.948468 52.707568c6.963093 13.618871 4.918894 29.472396-3.935953 40.767791-2.824503-37.180161-33.887225-66.468968-71.790715-66.468968h-4z"/></defs><g fill="none" fill-rule="evenodd"><g transform="translate(32 36)"><use fill="#d0c6ac" xlink:href="#a"/><g fill="#ffdbb4" mask="url(#b)"><path d="m0 0h264v244h-264z" transform="translate(-32)"/></g><path d="m156 79v23c0 30.927946-25.072054 56-56 56s-56-25.072054-56-56v-23 15c0 30.927946 25.072054 56 56 56s56-25.072054 56-56z" fill="#000" fill-opacity=".1" mask="url(#b)"/></g><g fill-rule="evenodd" transform="translate(0 170)"><use fill="#b7c1db" xlink:href="#g"/><g fill="#ffffb1" mask="url(#c)"><path d="m0 0h264v110h-264z"/></g><g fill="#f4f4f4"><circle cx="81" cy="83" r="5"/><circle cx="183" cy="83" r="5"/></g></g><g fill="#000"><g fill-rule="evenodd" transform="translate(78 134)"><use fill="#000" fill-opacity=".7" xlink:href="#h"/><rect fill="#fff" height="16" mask="url(#d)" rx="5" width="31" x="39" y="2"/><g fill="#ff4f6d" mask="url(#d)"><g transform="translate(38 24)"><circle cx="11" cy="11" r="11"/><circle cx="21" cy="11" r="11"/></g></g></g><path d="m16 8c0 4.418278 5.372583 8 12 8 6.627417 0 12-3.581722 12-8" fill-opacity=".16" transform="translate(104 122)"/><g fill-opacity=".6"><g><circle cx="106" cy="112" r="6"/><circle cx="158" cy="112" r="6"/></g><g transform="translate(76 82)"><path d="m22.7663531 1.57844898.9109453-.40262754c5.2418012-2.08108719 13.1872482-1.2086944 18.0454337 1.12329494.5670527.27237319.1794242 1.15282572-.4016309 1.10799368-14.9189224-1.15108809-24.9628143 8.14548414-28.3750143 14.43998384-.1011654.1866203-.4069346.2077961-.4825525.0337414-2.3072514-5.3187677 4.4499132-13.98468805 10.3028187-16.30238632z"/><path d="m80.7663531 1.57844898.9109453-.40262754c5.2418012-2.08108719 13.1872482-1.2086944 18.0454337 1.12329494.5670529.27237319.1794242 1.15282572-.4016309 1.10799368-14.9189224-1.15108809-24.9628143 8.14548414-28.3750143 14.43998384-.1011654.1866203-.4069346.2077961-.4825525.0337414-2.3072514-5.3187677 4.4499132-13.98468805 10.3028187-16.30238632z" transform="matrix(-1 0 0 1 170 0)"/></g></g></g><g fill-rule="evenodd" mask="url(#e)"><g fill-rule="evenodd" transform="translate(-1)"><g fill="none" transform="translate(40 15)"><use fill="#272c2e" xlink:href="#i"/><g fill="#4a312c" mask="url(#f)"><path d="m0 0h264v280h-264z"/></g></g><path d="m67 113c17.8226408-32.3353326 70.535357-32.3930852 87.429684-48.7916353 10.777862 8.4899269 28.462043 15.0581871 34.533334 33.6603514-6.071291-21.4447211-23.755472-31.3086107-34.533334-41.0916031-16.894327 18.8961453-69.6070432 18.9626939-87.429684 56.222887z" fill="#000" fill-opacity=".16"/></g></g></g></svg>